<svg width="100" height="100" viewBox="0 0 100 100" fill="none" xmlns="http://www.w3.org/2000/svg">
<path fill-rule="evenodd" clip-rule="evenodd" d="M22.413 0H77.587C89.9267 0 100 10.0364 100 22.2805V77.6969C100 89.9637 89.9267 100 77.587 100H22.413C10.0962 100 0 89.9636 0 77.6969V22.2805C0 10.0364 10.0962 0 22.413 0Z" fill="url(#paint0_linear_46_23)"/>
<path fill-rule="evenodd" clip-rule="evenodd" d="M68.3379 16.7502H31.6621C23.4662 16.7502 16.7583 23.4184 16.7583 31.5658V68.4115C16.7583 76.5591 23.4661 83.2272 31.6621 83.2272H68.3379C76.534 83.2272 83.2418 76.5589 83.2418 68.4115V31.5658C83.2418 23.4183 76.5339 16.7502 68.3379 16.7502ZM77.0834 64.9978C77.0834 71.6205 71.6118 77.0597 64.9497 77.0597H35.0733C28.3883 77.0597 22.9396 71.6205 22.9396 64.9978V35.0023C22.9396 28.3569 28.3883 22.9404 35.0733 22.9404H64.9497C71.6118 22.9404 77.0834 28.3569 77.0834 35.0023V64.9978Z" fill="white"/>
<path d="M50.0002 33.5913C40.9113 33.5913 33.5166 40.965 33.5166 50C33.5166 59.0351 40.9113 66.386 50.0002 66.386C59.089 66.386 66.5065 59.0351 66.5065 50C66.5065 40.9649 59.089 33.5913 50.0002 33.5913ZM50.0002 60.8558C43.9791 60.8558 39.0798 55.9855 39.0798 50C39.0798 44.0145 43.9791 39.1444 50.0002 39.1444C56.0212 39.1444 60.9204 44.0145 60.9204 50C60.9204 55.9855 56.0212 60.8558 50.0002 60.8558Z" fill="white"/>
<path fill-rule="evenodd" clip-rule="evenodd" d="M83.2154 16.6497C85.0928 16.6497 86.6037 15.1476 86.6037 13.3043C86.6037 11.4382 85.0927 9.9361 83.2154 9.9361C81.361 9.9361 79.8501 11.4382 79.8501 13.3043C79.8501 15.1478 81.3611 16.6497 83.2154 16.6497Z" fill="white"/>
<defs>
<linearGradient id="paint0_linear_46_23" x1="83.0794" y1="-9.32376" x2="17.5193" y2="109.654" gradientUnits="userSpaceOnUse">
<stop stop-color="#4845A2"/>
<stop offset="0.278" stop-color="#A844A1"/>
<stop offset="0.302" stop-color="#A844A1"/>
<stop offset="0.38" stop-color="#A844A1"/>
<stop offset="0.6" stop-color="#D7233E"/>
<stop offset="0.871" stop-color="#F8A325"/>
<stop offset="1" stop-color="#F8DD25"/>
</linearGradient>
</defs>
</svg>
