<svg width="88" height="88" viewBox="0 0 88 88" fill="none" xmlns="http://www.w3.org/2000/svg">
<g clip-path="url(#clip0)">
<path d="M83.771 19.4298L83.3421 18.673L54.9396 18.6651L43.6221 -0.256655L42.7639 -0.256638L31.4505 18.6599L6.33212 18.653L5.89142 19.3894L17.7734 41.5297L3.23687 65.8354L3.66599 66.592H31.2249L42.3084 87.2444L43.178 87.2648L55.5514 66.592H82.72L83.1491 65.8354L69.5786 43.1461L83.771 19.4298ZM57.9799 62.527L67.2109 47.1029L76.4363 62.527H57.9799ZM57.3697 22.7293L77.0553 22.7357L67.2111 39.187L57.3697 22.7293ZM64.8433 43.1449L53.2435 62.527H33.6551L22.4436 41.6383L33.7545 22.7241L52.6324 22.7289L64.8433 43.1449ZM50.2033 18.6647L36.1845 18.6603L43.1939 6.94215L50.2033 18.6647ZM20.0134 45.7025L29.0432 62.529H9.94964L20.0134 45.7025ZM12.2888 22.7182L29.0205 22.7228L20.2026 37.4665L12.2888 22.7182ZM35.8348 66.592H50.813L42.9157 79.7868L35.8348 66.592Z" fill="#DC2626" stroke="#DC2626" stroke-linejoin="bevel"/>
</g>
<defs>
<clipPath id="clip0">
<rect width="87.008" height="87.008" fill="white"/>
</clipPath>
</defs>
</svg>
