<svg width="100" height="100" viewBox="0 0 100 100" fill="none" xmlns="http://www.w3.org/2000/svg">
<g clip-path="url(#clip0_46_8)">
<path d="M77.5546 0H22.4454C10.0492 0 0 10.0492 0 22.4454V77.5546C0 89.9508 10.0492 100 22.4454 100H77.5546C89.9508 100 100 89.9508 100 77.5546V22.4454C100 10.0492 89.9508 0 77.5546 0Z" fill="#7D3DAF"/>
<path d="M75.6147 35.6079C74.6749 32.739 73.0472 30.1437 70.8736 28.0485C68.6999 25.9534 66.0466 24.4222 63.145 23.5885C54.5181 21.9326 45.6549 21.9326 37.0279 23.5885C34.0767 24.3708 31.365 25.8714 29.1348 27.9566C26.9046 30.0418 25.2252 32.6466 24.2465 35.5386C22.6496 42.7834 22.6496 50.289 24.2465 57.5338C25.1525 60.2885 26.6888 62.7938 28.7333 64.8503C30.7778 66.9069 33.2741 68.4579 36.0234 69.38V75.2338C36.0245 75.7031 36.1656 76.1614 36.4289 76.5499C36.6921 76.9384 37.0654 77.2394 37.5008 77.4143C37.9363 77.5892 38.4141 77.6301 38.8729 77.5316C39.3317 77.4332 39.7507 77.2 40.0761 76.8618L45.9992 70.7309H49.844C54.2264 70.7273 58.5987 70.3098 62.9025 69.4839C65.8041 68.6502 68.4575 67.119 70.6311 65.0238C72.8047 62.9287 74.4324 60.3334 75.3722 57.4645C77.0288 50.2818 77.1115 42.8256 75.6147 35.6079ZM70.9386 56.3907C70.2143 58.3775 69.0448 60.1721 67.5198 61.637C65.9948 63.102 64.1547 64.1985 62.1405 64.8424C57.5754 65.7088 52.9301 66.0804 48.2853 65.9508C48.2469 65.9346 48.2057 65.9263 48.1641 65.9263C48.1224 65.9263 48.0812 65.9346 48.0428 65.9508L43.6784 70.6616L39.0716 75.3724C38.9943 75.4457 38.8974 75.4952 38.7927 75.5149C38.688 75.5346 38.5798 75.5237 38.4811 75.4835C38.3824 75.4433 38.2973 75.3755 38.2362 75.2882C38.1751 75.2009 38.1404 75.0978 38.1364 74.9913V65.3273C38.1303 65.2523 38.1 65.1813 38.05 65.1251C38 65.0688 37.933 65.0304 37.8593 65.0156C35.845 64.3716 34.0049 63.2752 32.4799 61.8102C30.9549 60.3453 29.7855 58.5507 29.0612 56.5639C27.6229 50.0145 27.6229 43.2311 29.0612 36.6817C29.7855 34.6949 30.9549 32.9003 32.4799 31.4354C34.0049 29.9704 35.845 28.8739 37.8593 28.23C45.8689 26.6988 54.0962 26.6988 62.1059 28.23C64.1201 28.8739 65.9602 29.9704 67.4852 31.4354C69.0102 32.9003 70.1796 34.6949 70.9039 36.6817C72.3548 43.2284 72.3666 50.0121 70.9386 56.5639V56.3907Z" fill="white"/>
<path d="M61.7251 54.8666C61.0045 54.2623 60.253 53.6958 59.4736 53.1694C58.677 52.6152 57.9149 52.061 57.0836 51.5414C56.7185 51.2687 56.275 51.1214 55.8193 51.1214C55.3636 51.1214 54.9202 51.2687 54.555 51.5414C53.793 52.1649 53.412 53.3772 52.3382 53.5158C51.708 53.5324 51.0853 53.3767 50.537 53.0655C48.8908 52.3395 47.42 51.2677 46.2247 49.923C45.0293 48.5782 44.1374 46.9919 43.6094 45.2719C43.5026 45.0566 43.447 44.8195 43.447 44.5791C43.447 44.3388 43.5026 44.1017 43.6094 43.8864C43.7594 43.66 43.9468 43.4609 44.1636 43.2975L44.891 42.7433C45.3673 42.4131 45.6978 41.912 45.814 41.3443C45.9301 40.7765 45.8228 40.1859 45.5145 39.6952C44.5276 38.0083 43.3666 36.4294 42.0507 34.9844C41.8078 34.653 41.4549 34.4188 41.0551 34.3236C40.6553 34.2284 40.2348 34.2785 39.8685 34.4648C38.834 34.9481 37.9133 35.6446 37.1668 36.5085C36.6913 36.9341 36.3426 37.4828 36.1593 38.094C35.9759 38.7052 35.9649 39.3552 36.1276 39.9723C36.6818 41.3232 37.236 42.6741 37.8595 43.9903C39.1795 46.7682 40.8689 49.3548 42.882 51.6799C46.5264 55.5793 51.0179 58.5894 56.0098 60.478C56.4948 60.6858 57.0143 60.7897 57.5339 60.9629C58.0089 60.8568 58.4728 60.706 58.9194 60.5126C60.3411 59.7388 61.472 58.5228 62.1408 57.0488C62.3317 56.6924 62.3945 56.2814 62.3189 55.8842C62.2432 55.4871 62.0336 55.1279 61.7251 54.8666ZM50.0175 32.8715H49.6364C49.5225 32.8705 49.4096 32.894 49.3055 32.9404C49.2014 32.9867 49.1084 33.0549 49.0329 33.1403C48.9574 33.2256 48.9011 33.3262 48.8678 33.4352C48.8344 33.5442 48.8249 33.6591 48.8398 33.7721C48.8398 34.3609 49.5325 34.3609 50.0175 34.4302C50.5024 34.4995 51.5069 34.4302 52.1997 34.6727C54.574 35.1149 56.7511 36.2871 58.4276 38.0256C60.104 39.7642 61.1962 41.9825 61.5519 44.3713C61.5519 45.2719 61.7251 46.2071 61.7944 47.1424C61.8637 48.0776 62.0715 48.0429 62.5911 48.0429C62.701 48.0398 62.809 48.0129 62.9075 47.964C63.0061 47.9152 63.0929 47.8456 63.162 47.76C63.2311 47.6745 63.2809 47.575 63.3079 47.4683C63.3349 47.3617 63.3385 47.2505 63.3185 47.1424C63.3185 46.0339 63.3185 44.9255 62.9721 43.6786C62.4141 40.6482 60.8132 37.9086 58.4471 35.9347C56.081 33.9608 53.0988 32.8772 50.0175 32.8715Z" fill="white"/>
<path d="M58.365 45.549C58.332 45.7555 58.332 45.966 58.365 46.1725C58.412 46.3193 58.5044 46.4474 58.6289 46.5383C58.7534 46.6291 58.9036 46.6781 59.0577 46.6781C59.2119 46.6781 59.3621 46.6291 59.4866 46.5383C59.6111 46.4474 59.7035 46.3193 59.7505 46.1725C59.7617 46.0226 59.7617 45.8721 59.7505 45.7222V44.6138V44.1981C59.5863 42.7835 59.073 41.432 58.2567 40.265C57.4404 39.0981 56.3469 38.1524 55.0744 37.513C53.752 36.8373 52.2979 36.459 50.8139 36.4046C50.7173 36.3949 50.6197 36.4056 50.5275 36.436C50.4353 36.4664 50.3505 36.5159 50.2786 36.5813C50.2068 36.6466 50.1494 36.7263 50.1104 36.8152C50.0713 36.9041 50.0514 37.0002 50.0519 37.0973C50.0372 37.1938 50.043 37.2922 50.069 37.3862C50.0949 37.4803 50.1405 37.5678 50.2026 37.643C50.2647 37.7182 50.3421 37.7794 50.4295 37.8227C50.5169 37.8659 50.6125 37.8902 50.71 37.894L51.957 38.1018C52.8094 38.2348 53.6379 38.4916 54.4163 38.8639C55.7027 39.5003 56.7745 40.4998 57.499 41.7388C58.1037 42.9158 58.4015 44.2263 58.365 45.549Z" fill="white"/>
<path d="M56.4254 45.0294C56.4573 44.8228 56.4573 44.6126 56.4254 44.406C56.43 43.8163 56.3178 43.2315 56.0953 42.6854C55.8728 42.1392 55.5444 41.6426 55.129 41.224C54.7136 40.8054 54.2195 40.4731 53.6751 40.2464C53.1307 40.0197 52.5468 39.903 51.9571 39.903C51.7669 39.8903 51.5783 39.9462 51.4258 40.0606C51.2733 40.175 51.1668 40.3403 51.1258 40.5265C51.1058 40.6222 51.1052 40.7209 51.1242 40.8168C51.1432 40.9127 51.1813 41.0037 51.2362 41.0846C51.2912 41.1654 51.3619 41.2343 51.4441 41.2872C51.5263 41.3401 51.6183 41.3759 51.7146 41.3924C52.0957 41.3924 52.5113 41.3924 52.927 41.5656C53.2374 41.6534 53.5303 41.794 53.7929 41.9813C54.3409 42.4017 54.7216 43.0033 54.8667 43.6786C54.8889 44.0246 54.8889 44.3717 54.8667 44.7177C54.8666 44.8253 54.8883 44.9318 54.9305 45.0308C54.9727 45.1298 55.0345 45.2192 55.1121 45.2936C55.1898 45.3681 55.2818 45.426 55.3825 45.464C55.4832 45.5019 55.5905 45.5191 55.698 45.5144C55.8576 45.5366 56.0198 45.4995 56.1539 45.4101C56.2879 45.3208 56.3845 45.1853 56.4254 45.0294Z" fill="white"/>
</g>
<defs>
<clipPath id="clip0_46_8">
<rect width="100" height="100" fill="white"/>
</clipPath>
</defs>
</svg>
