<svg width="100" height="100" viewBox="0 0 100 100" fill="none" xmlns="http://www.w3.org/2000/svg">
<path fill-rule="evenodd" clip-rule="evenodd" d="M100 14.2857C100 6.39286 93.6071 0 85.7143 0H14.2857C6.39286 0 0 6.39286 0 14.2857V85.7143C0 93.6071 6.39286 100 14.2857 100H85.7143C93.6071 100 100 93.6071 100 85.7143V14.2857Z" fill="#1584FF"/>
<path fill-rule="evenodd" clip-rule="evenodd" d="M54.4644 57.1964C56.0536 57.1964 58.1786 57.4643 60.5001 58.5179C63.1786 59.7321 66.1608 62.0714 68.9286 65.8214C69.7858 66.9821 71.1608 69.3929 71.8751 70.6429C72.1608 71.125 72.6786 71.4286 73.2322 71.4286H81.8036C82.2679 71.4286 82.6965 71.1964 82.9465 70.8036C83.1965 70.4107 83.2322 69.9286 83.0358 69.5C82.3751 68.0714 81.5893 66.375 81.5893 66.375C77.8572 58.8393 73.4822 54.1607 69.2679 51.2321C72.0894 48.9107 74.9643 45.6607 77.6786 41.1071C79.9822 37.25 81.1608 33.9107 81.7143 32.0179C81.8036 31.625 81.7143 31.1964 81.4643 30.875C81.2143 30.5536 80.8215 30.3571 80.4108 30.3571C78.1429 30.3571 74.2144 30.3571 72.3036 30.3571C71.6429 30.3571 71.0358 30.7321 70.7322 31.3393C70.4644 31.875 70.1786 32.4464 70.1786 32.4464C66.6251 39.625 62.7679 43.3214 59.2144 45.0179C57.3751 45.8929 55.7143 46.1607 54.4286 46.1964V32.1607C54.4286 31.6786 54.2322 31.2321 53.9108 30.8929C53.5715 30.5536 53.1251 30.375 52.6429 30.375H45.5001C45.0179 30.375 44.5715 30.5714 44.2322 30.8929C43.8929 31.2321 43.7143 31.6786 43.7143 32.1607V60C33.6608 55.75 28.5001 45.2679 28.5358 35.75C28.5358 35.75 28.5358 33.7321 28.5358 32.1786C28.5358 31.1964 27.7322 30.3929 26.7501 30.3929C24.7679 30.3929 21.5893 30.3929 19.6072 30.375C18.6251 30.375 17.8215 31.1607 17.8215 32.1607C17.8215 33.7143 17.8215 35.7321 17.8215 35.7321C17.7679 51.75 28.5001 70.8214 48.1786 71.4643H52.6429C53.6251 71.4643 54.4286 70.6607 54.4286 69.6786V57.2321L54.4644 57.1964Z" fill="white"/>
</svg>
