<svg width="100" height="100" viewBox="0 0 100 100" fill="none" xmlns="http://www.w3.org/2000/svg">
<g clip-path="url(#clip0_46_20)">
<path d="M99.9942 74.722C99.9942 75.2694 99.9775 76.4569 99.9446 77.3742C99.8642 79.6186 99.6862 82.5148 99.4172 83.8343C99.0128 85.8173 98.4024 87.689 97.6065 89.2469C96.6648 91.0898 95.4636 92.7405 94.0362 94.1652C92.612 95.5871 90.9628 96.7836 89.1227 97.7215C87.5567 98.5195 85.6733 99.1303 83.6789 99.5329C82.3725 99.7967 79.4981 99.9712 77.268 100.05C76.3498 100.083 75.1621 100.1 74.6166 100.1L25.3758 100.092C24.8282 100.092 23.6409 100.075 22.7236 100.042C20.4792 99.9617 17.5831 99.7838 16.2635 99.5149C14.2805 99.1104 12.4087 98.5 10.8509 97.7041C9.00791 96.7623 7.35723 95.5611 5.93252 94.1338C4.51064 92.7096 3.31416 91.0605 2.37637 89.2203C1.57813 87.6542 0.967383 85.7708 0.564746 83.7766C0.301074 82.4701 0.126563 79.5957 0.047168 77.3655C0.0145508 76.4475 -0.00195312 75.2598 -0.00195312 74.7144L0.00585938 25.4734C0.00585938 24.9258 0.0225586 23.7384 0.0554688 22.8211C0.136035 20.5767 0.313867 17.6806 0.58291 16.361C0.987305 14.378 1.59766 12.5063 2.39365 10.9484C3.33535 9.10548 4.53662 7.4547 5.96387 6.02999C7.38809 4.60822 9.03731 3.41163 10.8774 2.47374C12.4436 1.6757 14.3271 1.06495 16.3213 0.662317C17.6276 0.398547 20.5022 0.224036 22.7322 0.144739C23.6504 0.112024 24.8382 0.09552 25.3835 0.09552L74.6244 0.10343C75.1721 0.10343 76.3594 0.120129 77.2767 0.15304C79.5211 0.233606 82.4171 0.411438 83.7368 0.680481C85.7197 1.08488 87.5915 1.69523 89.1494 2.49122C90.9923 3.43292 92.643 4.63419 94.0677 6.06144C95.4895 7.48566 96.686 9.13478 97.6238 10.975C98.4221 12.5411 99.0328 14.4245 99.4355 16.4188C99.6991 17.7252 99.8735 20.5996 99.953 22.8298C99.9857 23.748 100.002 24.9357 100.002 25.4812L99.9942 74.722V74.722Z" fill="url(#paint0_linear_46_20)"/>
<path d="M76.4942 23.7545C69.7238 16.9784 60.7199 13.2448 51.1268 13.241C31.3609 13.241 15.2739 29.3219 15.266 49.0879C15.2635 55.4062 16.9147 61.5736 20.0528 67.01L14.9653 85.587L33.9756 80.602C39.2135 83.4578 45.1105 84.9629 51.1125 84.9654H51.1272C70.8911 84.9654 86.9796 68.8826 86.9876 49.1164C86.9914 39.5376 83.2648 30.5306 76.4942 23.7545ZM51.1272 78.9109H51.115C45.7667 78.9088 40.521 77.4725 35.9447 74.7576L34.8562 74.1119L23.5753 77.0702L26.5864 66.0749L25.8775 64.9476C22.8939 60.2035 21.3182 54.7201 21.3205 49.0903C21.327 32.6616 34.6979 19.2957 51.1388 19.2957C59.0998 19.2987 66.5835 22.4023 72.2109 28.0342C77.8384 33.6661 80.9357 41.1526 80.9328 49.1142C80.9264 65.5442 67.5555 78.9109 51.1272 78.9109ZM67.4764 56.5949C66.5802 56.1466 62.175 53.9795 61.3536 53.6806C60.5323 53.3816 59.9351 53.2321 59.3375 54.129C58.7403 55.0257 57.0231 57.0434 56.5003 57.6411C55.9776 58.239 55.455 58.3138 54.559 57.8653C53.6629 57.417 50.7758 56.4711 47.3533 53.4194C44.6897 51.0445 42.8913 48.1109 42.3687 47.2141C41.846 46.3173 42.3131 45.8326 42.7616 45.386C43.1646 44.9847 43.6576 44.3398 44.1057 43.8167C44.5536 43.2938 44.703 42.9199 45.0017 42.3222C45.3004 41.7243 45.151 41.2012 44.927 40.7528C44.703 40.3045 42.9109 35.8955 42.1643 34.1021C41.437 32.3554 40.6981 32.5917 40.1481 32.5643C39.6261 32.5383 39.0281 32.5328 38.4309 32.5328C37.8336 32.5328 36.8628 32.7569 36.0415 33.6537C35.2202 34.5505 32.9055 36.7176 32.9055 41.1265C32.9055 45.5354 36.1161 49.7948 36.5642 50.3926C37.0122 50.9904 42.8824 60.0382 51.8709 63.9182C54.0088 64.841 55.6777 65.3922 56.9791 65.8051C59.1256 66.4866 61.0789 66.3905 62.6229 66.16C64.3444 65.9028 67.9241 63.9931 68.671 61.9007C69.4177 59.8082 69.4177 58.0149 69.1936 57.6412C68.9696 57.2676 68.3724 57.0434 67.4764 56.5949Z" fill="white"/>
</g>
<defs>
<linearGradient id="paint0_linear_46_20" x1="50.0001" y1="0.09552" x2="50.0001" y2="100.1" gradientUnits="userSpaceOnUse">
<stop stop-color="#61FD7D"/>
<stop offset="1" stop-color="#2BB826"/>
</linearGradient>
<clipPath id="clip0_46_20">
<rect width="100" height="100" fill="white"/>
</clipPath>
</defs>
</svg>
